<svg width="16" height="17" viewBox="0 0 16 17" fill="none" xmlns="http://www.w3.org/2000/svg">
<path d="M0 5.81579V0.671053H1.33333V3.60132C2.04444 2.51272 2.98519 1.64035 4.15556 0.984211C5.32593 0.32807 6.60741 0 8 0C9.8963 0 11.5556 0.562939 12.9778 1.68882C14.4 2.81469 15.3259 4.19035 15.7556 5.81579H14.3778C13.9481 4.56316 13.1556 3.50439 12 2.63947C10.8444 1.77456 9.51111 1.34211 8 1.34211C6.8 1.34211 5.70741 1.62917 4.72222 2.20329C3.73704 2.77741 2.94815 3.53421 2.35556 4.47368H5.11111V5.81579H0ZM2.57778 13.4882H13.4444L10.1778 9.10395L7.24444 12.9289L5.17778 10.0882L2.57778 13.4882ZM1.33333 17C0.962963 17 0.648148 16.8695 0.388889 16.6086C0.12963 16.3476 0 16.0307 0 15.6579V7.60526H1.33333V15.6579H14.6667V7.60526H16V15.6579C16 16.0307 15.8704 16.3476 15.6111 16.6086C15.3519 16.8695 15.037 17 14.6667 17H1.33333Z" fill="#BDBDBD"/>
</svg>
