<svg width="19" height="18" viewBox="0 0 19 18" fill="none" xmlns="http://www.w3.org/2000/svg">
<path d="M0 8.52632L4.73684 0L9.47368 8.52632H0ZM4.76053 18C3.71842 18 2.82632 17.6289 2.08421 16.8868C1.34211 16.1447 0.971053 15.2526 0.971053 14.2105C0.971053 13.1526 1.34211 12.2566 2.08421 11.5224C2.82632 10.7882 3.71842 10.4211 4.76053 10.4211C5.80263 10.4211 6.69474 10.7921 7.43684 11.5342C8.17895 12.2763 8.55 13.1684 8.55 14.2105C8.55 15.2526 8.17895 16.1447 7.43684 16.8868C6.69474 17.6289 5.80263 18 4.76053 18ZM4.76053 16.5789C5.42368 16.5789 5.98421 16.35 6.44211 15.8921C6.9 15.4342 7.12895 14.8737 7.12895 14.2105C7.12895 13.5474 6.9 12.9868 6.44211 12.5289C5.98421 12.0711 5.42368 11.8421 4.76053 11.8421C4.09737 11.8421 3.53684 12.0711 3.07895 12.5289C2.62105 12.9868 2.39211 13.5474 2.39211 14.2105C2.39211 14.8737 2.62105 15.4342 3.07895 15.8921C3.53684 16.35 4.09737 16.5789 4.76053 16.5789ZM2.41579 7.10526H7.05789L4.73684 2.93684L2.41579 7.10526ZM10.4211 18V10.4211H18V18H10.4211ZM11.8421 16.5789H16.5789V11.8421H11.8421V16.5789ZM14.2105 8.52632C13.3105 7.76842 12.5566 7.12895 11.9487 6.60789C11.3408 6.08684 10.8553 5.62895 10.4921 5.23421C10.1289 4.83947 9.86842 4.46842 9.71053 4.12105C9.55263 3.77368 9.47368 3.40263 9.47368 3.00789C9.47368 2.29737 9.72237 1.69737 10.2197 1.20789C10.7171 0.718421 11.3368 0.473684 12.0789 0.473684C12.4895 0.473684 12.8842 0.568421 13.2632 0.757895C13.6421 0.947368 13.9579 1.22368 14.2105 1.58684C14.4632 1.22368 14.7789 0.947368 15.1579 0.757895C15.5368 0.568421 15.9316 0.473684 16.3421 0.473684C17.0842 0.473684 17.7039 0.718421 18.2013 1.20789C18.6987 1.69737 18.9474 2.29737 18.9474 3.00789C18.9474 3.40263 18.8684 3.77368 18.7105 4.12105C18.5526 4.46842 18.2921 4.83947 17.9289 5.23421C17.5658 5.62895 17.0803 6.08684 16.4724 6.60789C15.8645 7.12895 15.1105 7.76842 14.2105 8.52632ZM14.2105 6.65526C15.5526 5.55 16.4408 4.76053 16.875 4.28684C17.3092 3.81316 17.5263 3.40263 17.5263 3.05526C17.5263 2.70843 17.4248 2.4283 17.2218 2.21488C17.0188 2.00145 16.7414 1.89474 16.3895 1.89474C16.1826 1.89474 15.9809 1.95 15.7843 2.06053C15.5877 2.17105 15.3395 2.36053 15.0395 2.62895L14.2105 3.41053L13.3816 2.62895C13.0868 2.35484 12.8395 2.16395 12.6395 2.05626C12.4395 1.94858 12.2368 1.89474 12.0316 1.89474C11.6797 1.89474 11.4023 2.00145 11.1992 2.21488C10.9962 2.4283 10.8947 2.70843 10.8947 3.05526C10.8947 3.40263 11.1118 3.81316 11.5461 4.28684C11.9803 4.76053 12.8684 5.55 14.2105 6.65526Z" fill="#4F4F4F"/>
</svg>
