<svg width="17" height="16" viewBox="0 0 17 16" fill="none" xmlns="http://www.w3.org/2000/svg">
<path d="M12.8072 8.41412L4.36509 0L3.03361 1.32706L5.28107 3.56706L0.417859 8.41412C-0.139286 8.96941 -0.139286 9.86353 0.417859 10.4094L5.61158 15.5859C5.88543 15.8588 6.25372 16 6.61255 16C6.97139 16 7.33967 15.8588 7.61353 15.5859L12.8072 10.4094C13.3644 9.86353 13.3644 8.96941 12.8072 8.41412ZM2.08929 9.41177L6.61255 4.90353L11.1358 9.41177H2.08929ZM15.1114 10.8235C15.1114 10.8235 13.2227 12.8659 13.2227 14.1176C13.2227 15.1529 14.0726 16 15.1114 16C16.1501 16 17 15.1529 17 14.1176C17 12.8659 15.1114 10.8235 15.1114 10.8235Z" fill="#BDBDBD"/>
</svg>
