<svg width="20" height="20" viewBox="0 0 20 20" fill="none" xmlns="http://www.w3.org/2000/svg">
<path fill-rule="evenodd" clip-rule="evenodd" d="M9.18952 16.8012H11.6C11.9314 16.8012 12.2 17.0699 12.2 17.4012C12.2 17.7326 11.9314 18.0012 11.6 18.0012H8.41781C8.40628 18.0016 8.39469 18.0016 8.38306 18.0012H5.20001C4.86864 18.0012 4.60001 17.7326 4.60001 17.4012C4.60001 17.0699 4.86864 16.8012 5.20001 16.8012H7.94408L11.6108 3.60123H9.20001C8.86864 3.60123 8.60001 3.33261 8.60001 3.00123C8.60001 2.66986 8.86864 2.40123 9.20001 2.40123H12.392C12.3972 2.40117 12.4024 2.40117 12.4075 2.40123L15.6 2.40123C15.9314 2.40123 16.2 2.66986 16.2 3.00123C16.2 3.33261 15.9314 3.60123 15.6 3.60123H12.8562L9.18952 16.8012Z" fill="#333333"/>
</svg>
