<svg width="20" height="20" viewBox="0 0 20 20" fill="none" xmlns="http://www.w3.org/2000/svg">
<path fill-rule="evenodd" clip-rule="evenodd" d="M4.60668 18.0175C4.27531 18.0175 4.00668 17.7489 4.00668 17.4175V3.01754C4.00668 2.68617 4.27531 2.41754 4.60668 2.41754H11.0067C13.1148 2.41754 14.8067 4.30463 14.8067 6.61754C14.8067 7.85784 14.3202 8.97569 13.5438 9.74575C15.1945 10.2072 16.4067 11.8598 16.4067 13.8175C16.4067 16.1305 14.7148 18.0175 12.6067 18.0175H4.60668ZM5.20668 16.8175H12.6067C14.0321 16.8175 15.2067 15.4817 15.2067 13.8175C15.2067 12.1533 14.0321 10.8175 12.6067 10.8175H5.20668V16.8175ZM5.20668 9.61754H11.0067C12.4321 9.61754 13.6067 8.28174 13.6067 6.61754C13.6067 4.95334 12.4321 3.61754 11.0067 3.61754H5.20668V9.61754Z" fill="#333333"/>
</svg>
