<svg width="20" height="20" viewBox="0 0 20 20" fill="none" xmlns="http://www.w3.org/2000/svg">
<path fill-rule="evenodd" clip-rule="evenodd" d="M15.6 1.60132C15.2686 1.60132 15 1.86995 15 2.20132V9.40132C15 12.1627 12.7614 14.4013 10 14.4013C7.23858 14.4013 5 12.1627 5 9.40132V2.20132C5 1.86995 4.73137 1.60132 4.4 1.60132C4.06863 1.60132 3.8 1.86995 3.8 2.20132V9.40132C3.8 12.8255 6.57583 15.6013 10 15.6013C13.4242 15.6013 16.2 12.8255 16.2 9.40132V2.20132C16.2 1.86995 15.9314 1.60132 15.6 1.60132ZM3 17.4013C3 17.7327 3.26863 18.0013 3.6 18.0013H16.4C16.7314 18.0013 17 17.7327 17 17.4013C17 17.0699 16.7314 16.8013 16.4 16.8013H3.6C3.26863 16.8013 3 17.0699 3 17.4013Z" fill="#333333"/>
</svg>
