<svg width="24" height="24" viewBox="0 0 24 24" fill="none" xmlns="http://www.w3.org/2000/svg">
<circle cx="12" cy="12" r="12" fill="white"/>
<rect width="24" height="24" rx="2" fill="#333333"/>
<path fill-rule="evenodd" clip-rule="evenodd" d="M12 4.7721H4.18602C3.83391 4.7721 3.59998 4.50892 3.59998 4.18605C3.59998 3.86319 3.83391 3.60001 4.18602 3.60001H12C12.3521 3.60001 12.586 3.86319 12.586 4.18605C12.586 4.50892 12.3521 4.7721 12 4.7721ZM19.8139 8.67908H4.18602C3.83391 8.67908 3.59998 8.41589 3.59998 8.09303C3.59998 7.77016 3.83391 7.50698 4.18602 7.50698H19.8139C20.166 7.50698 20.4 7.77016 20.4 8.09303C20.4 8.41589 20.166 8.67908 19.8139 8.67908ZM4.18602 12.5861C3.83391 12.5861 3.59998 12.3229 3.59998 12C3.59998 11.6771 3.83391 11.414 4.18602 11.414H12C12.3521 11.414 12.586 11.6771 12.586 12C12.586 12.3229 12.3521 12.5861 12 12.5861H4.18602ZM19.8139 16.493H4.18602C3.83391 16.493 3.59998 16.2298 3.59998 15.907C3.59998 15.5841 3.83391 15.3209 4.18602 15.3209H19.8139C20.166 15.3209 20.4 15.5841 20.4 15.907C20.4 16.2298 20.166 16.493 19.8139 16.493ZM12 20.4H4.18602C3.83391 20.4 3.59998 20.1368 3.59998 19.814C3.59998 19.4911 3.83391 19.2279 4.18602 19.2279H12C12.3521 19.2279 12.586 19.4911 12.586 19.814C12.586 20.1368 12.3521 20.4 12 20.4Z" fill="white"/>
</svg>
