<svg width="18" height="18" viewBox="0 0 18 18" fill="none" xmlns="http://www.w3.org/2000/svg">
<path d="M2.7 18C1.95 18 1.3125 17.7375 0.7875 17.2125C0.2625 16.6875 0 16.05 0 15.3V2.7C0 1.95 0.2625 1.3125 0.7875 0.7875C1.3125 0.2625 1.95 0 2.7 0H15.3C16.05 0 16.6875 0.2625 17.2125 0.7875C17.7375 1.3125 18 1.95 18 2.7V15.3C18 16.05 17.7375 16.6875 17.2125 17.2125C16.6875 17.7375 16.05 18 15.3 18H2.7ZM2.7 16.65H15.3C15.6825 16.65 16.0031 16.5206 16.2619 16.2619C16.5206 16.0031 16.65 15.6825 16.65 15.3V2.7C16.65 2.3175 16.5206 1.99688 16.2619 1.73813C16.0031 1.47938 15.6825 1.35 15.3 1.35H2.7C2.3175 1.35 1.99688 1.47938 1.73813 1.73813C1.47938 1.99688 1.35 2.3175 1.35 2.7V15.3C1.35 15.6825 1.47938 16.0031 1.73813 16.2619C1.99688 16.5206 2.3175 16.65 2.7 16.65ZM4.14 14.175L7.2 11.115L8.8425 12.735L10.8 10.26L13.9275 14.175H4.14ZM5.398 6.975C4.96433 6.975 4.59375 6.82058 4.28625 6.51175C3.97875 6.20293 3.825 5.83168 3.825 5.398C3.825 4.96433 3.97942 4.59375 4.28825 4.28625C4.59707 3.97875 4.96832 3.825 5.402 3.825C5.83567 3.825 6.20625 3.97942 6.51375 4.28825C6.82125 4.59707 6.975 4.96832 6.975 5.402C6.975 5.83567 6.82058 6.20625 6.51175 6.51375C6.20293 6.82125 5.83168 6.975 5.398 6.975Z" fill="#4F4F4F"/>
</svg>
