<svg width="7" height="14" viewBox="0 0 7 14" fill="none" xmlns="http://www.w3.org/2000/svg">
<path d="M7 7.525V10.5C7 11.4683 6.65875 12.2937 5.97625 12.9762C5.29375 13.6587 4.46833 14 3.5 14C2.53167 14 1.70625 13.6587 1.02375 12.9762C0.34125 12.2937 0 11.4683 0 10.5L0 7.525H1.05L1.05 10.5C1.05 11.1806 1.2878 11.759 1.76339 12.2354C2.23897 12.7118 2.81647 12.95 3.49589 12.95C4.1753 12.95 4.75417 12.7118 5.2325 12.2354C5.71083 11.759 5.95 11.1806 5.95 10.5V7.525H7ZM4.025 9.7125H2.975L2.975 4.2875H4.025V9.7125ZM7 6.475H5.95V3.5C5.95 2.81945 5.7122 2.24097 5.23661 1.76458C4.76103 1.28819 4.18353 1.05 3.50411 1.05C2.8247 1.05 2.24583 1.28819 1.7675 1.76458C1.28917 2.24097 1.05 2.81945 1.05 3.5V6.475H0L0 3.5C0 2.53167 0.34125 1.70625 1.02375 1.02375C1.70625 0.34125 2.53167 -5.96046e-08 3.5 -5.96046e-08C4.46833 -5.96046e-08 5.29375 0.34125 5.97625 1.02375C6.65875 1.70625 7 2.53167 7 3.5V6.475Z" fill="#828282"/>
</svg>
