<svg width="17" height="22" viewBox="0 0 17 22" fill="none" xmlns="http://www.w3.org/2000/svg">
<path d="M1.59375 22C1.15104 22 0.77474 21.8472 0.464844 21.5417C0.154948 21.2361 0 20.8651 0 20.4286V9.0619C0 8.6254 0.154948 8.25436 0.464844 7.94881C0.77474 7.64325 1.15104 7.49048 1.59375 7.49048H3.45312V4.97619C3.45312 3.59683 3.94453 2.42262 4.92734 1.45357C5.91016 0.484524 7.10104 0 8.5 0C9.89896 0 11.0898 0.484524 12.0727 1.45357C13.0555 2.42262 13.5469 3.59683 13.5469 4.97619V7.49048H15.4062C15.849 7.49048 16.2253 7.64325 16.5352 7.94881C16.8451 8.25436 17 8.6254 17 9.0619V20.4286C17 20.8651 16.8451 21.2361 16.5352 21.5417C16.2253 21.8472 15.849 22 15.4062 22H1.59375ZM1.59375 20.4286H15.4062V9.0619H1.59375V20.4286ZM8.5 16.7619C9.06667 16.7619 9.54922 16.5698 9.94766 16.1857C10.3461 15.8016 10.5453 15.3389 10.5453 14.7976C10.5453 14.2738 10.3461 13.798 9.94766 13.3702C9.54922 12.9425 9.06667 12.7286 8.5 12.7286C7.93333 12.7286 7.45078 12.9425 7.05234 13.3702C6.65391 13.798 6.45469 14.2738 6.45469 14.7976C6.45469 15.3389 6.65391 15.8016 7.05234 16.1857C7.45078 16.5698 7.93333 16.7619 8.5 16.7619ZM5.04688 7.49048H11.9531V4.97619C11.9531 4.03333 11.6167 3.23016 10.9438 2.56667C10.2708 1.90317 9.45625 1.57143 8.5 1.57143C7.54375 1.57143 6.72917 1.90317 6.05625 2.56667C5.38333 3.23016 5.04688 4.03333 5.04688 4.97619V7.49048Z" fill="#BDBDBD"/>
</svg>
