<svg width="20" height="16" viewBox="0 0 20 16" fill="none" xmlns="http://www.w3.org/2000/svg">
<path d="M12.225 12H13.725V9.75H15.975V8.25H13.725V6H12.225V8.25H9.975V9.75H12.225V12ZM1.5 16C1.1 16 0.75 15.8458 0.45 15.5375C0.15 15.2292 0 14.8833 0 14.5V1.5C0 1.11667 0.15 0.770833 0.45 0.4625C0.75 0.154167 1.1 0 1.5 0H8.5L10 1.5H18.5C18.8833 1.5 19.2292 1.65417 19.5375 1.9625C19.8458 2.27083 20 2.61667 20 3V14.5C20 14.8833 19.8458 15.2292 19.5375 15.5375C19.2292 15.8458 18.8833 16 18.5 16H1.5ZM1.5 1.5V14.5H18.5V3H9.375L7.875 1.5H1.5Z" fill="#BDBDBD"/>
</svg>
