<svg width="17" height="16" viewBox="0 0 17 16" fill="none" xmlns="http://www.w3.org/2000/svg">
<path fill-rule="evenodd" clip-rule="evenodd" d="M3.75 6.75C2.23122 6.75 1 5.51878 1 4C1 2.48122 2.23122 1.25 3.75 1.25C5.26878 1.25 6.5 2.48122 6.5 4C6.5 5.51878 5.26878 6.75 3.75 6.75Z" stroke="#333333" stroke-linecap="round" stroke-linejoin="round"/>
<path fill-rule="evenodd" clip-rule="evenodd" d="M12.9167 15C11.3979 15 10.1667 13.7688 10.1667 12.25C10.1667 10.7312 11.3979 9.5 12.9167 9.5C14.4354 9.5 15.6667 10.7312 15.6667 12.25C15.6667 13.7688 14.4354 15 12.9167 15Z" stroke="#333333" stroke-linecap="round" stroke-linejoin="round"/>
<path d="M6.49712 4H15.6667M10.1695 12.25H1" stroke="#333333" stroke-linecap="round" stroke-linejoin="round"/>
</svg>
