<svg width="16" height="16" viewBox="0 0 16 16" fill="none" xmlns="http://www.w3.org/2000/svg">
<path d="M8.354 0.146894C8.30755 0.100331 8.25238 0.0633877 8.19163 0.0381813C8.13089 0.0129748 8.06577 0 8 0C7.93423 0 7.86911 0.0129748 7.80837 0.0381813C7.74762 0.0633877 7.69245 0.100331 7.646 0.146894L4.646 3.14689C4.59944 3.19334 4.56249 3.24851 4.53729 3.30926C4.51208 3.37001 4.49911 3.43513 4.49911 3.50089C4.49911 3.56666 4.51208 3.63178 4.53729 3.69253C4.56249 3.75327 4.59944 3.80845 4.646 3.85489L5.646 4.85489C5.69245 4.90146 5.74762 4.9384 5.80837 4.96361C5.86911 4.98881 5.93423 5.00179 6 5.00179C6.06577 5.00179 6.13089 4.98881 6.19163 4.96361C6.25238 4.9384 6.30755 4.90146 6.354 4.85489L7 4.20789V12.0009H1C0.734784 12.0009 0.48043 12.1063 0.292893 12.2938C0.105357 12.4813 0 12.7357 0 13.0009L0 15.0009C0 15.2661 0.105357 15.5205 0.292893 15.708C0.48043 15.8955 0.734784 16.0009 1 16.0009H15C15.2652 16.0009 15.5196 15.8955 15.7071 15.708C15.8946 15.5205 16 15.2661 16 15.0009V13.0009C16 12.7357 15.8946 12.4813 15.7071 12.2938C15.5196 12.1063 15.2652 12.0009 15 12.0009H9V4.20789L9.646 4.85489C9.69245 4.90146 9.74762 4.9384 9.80837 4.96361C9.86911 4.98881 9.93423 5.00179 10 5.00179C10.0658 5.00179 10.1309 4.98881 10.1916 4.96361C10.2524 4.9384 10.3076 4.90146 10.354 4.85489L11.354 3.85489C11.4006 3.80845 11.4375 3.75327 11.4627 3.69253C11.4879 3.63178 11.5009 3.56666 11.5009 3.50089C11.5009 3.43513 11.4879 3.37001 11.4627 3.30926C11.4375 3.24851 11.4006 3.19334 11.354 3.14689L8.354 0.146894Z" fill="#BDBDBD"/>
<path d="M1 7.00085C0.734784 7.00085 0.48043 7.10621 0.292893 7.29375C0.105357 7.48128 0 7.73564 0 8.00085L0 10.0009C0 10.2661 0.105357 10.5204 0.292893 10.708C0.48043 10.8955 0.734784 11.0009 1 11.0009H5.5C5.63261 11.0009 5.75979 10.9482 5.85355 10.8544C5.94732 10.7606 6 10.6335 6 10.5009C6 10.3682 5.94732 10.2411 5.85355 10.1473C5.75979 10.0535 5.63261 10.0009 5.5 10.0009H1V8.00085H5.5C5.63261 8.00085 5.75979 7.94818 5.85355 7.85441C5.94732 7.76064 6 7.63346 6 7.50085C6 7.36825 5.94732 7.24107 5.85355 7.1473C5.75979 7.05353 5.63261 7.00085 5.5 7.00085H1ZM10.5 7.00085C10.3674 7.00085 10.2402 7.05353 10.1464 7.1473C10.0527 7.24107 10 7.36825 10 7.50085C10 7.63346 10.0527 7.76064 10.1464 7.85441C10.2402 7.94818 10.3674 8.00085 10.5 8.00085H15V10.0009H10.5C10.3674 10.0009 10.2402 10.0535 10.1464 10.1473C10.0527 10.2411 10 10.3682 10 10.5009C10 10.6335 10.0527 10.7606 10.1464 10.8544C10.2402 10.9482 10.3674 11.0009 10.5 11.0009H15C15.2652 11.0009 15.5196 10.8955 15.7071 10.708C15.8946 10.5204 16 10.2661 16 10.0009V8.00085C16 7.73564 15.8946 7.48128 15.7071 7.29375C15.5196 7.10621 15.2652 7.00085 15 7.00085H10.5Z" fill="#BDBDBD"/>
</svg>
