<svg width="23" height="18" viewBox="0 0 23 18" fill="none" xmlns="http://www.w3.org/2000/svg">
<path d="M4.75312 8.71875H17.6906V7.03125H4.75312V8.71875ZM4.75312 13.2188H13.1906V11.5312H4.75312V13.2188ZM1.6875 18C1.2375 18 0.84375 17.8266 0.50625 17.4797C0.16875 17.1328 0 16.7437 0 16.3125V1.6875C0 1.25625 0.16875 0.867187 0.50625 0.520312C0.84375 0.173438 1.2375 0 1.6875 0H9.5625L11.25 1.6875H20.8125C21.2437 1.6875 21.6328 1.86094 21.9797 2.20781C22.3266 2.55469 22.5 2.94375 22.5 3.375V16.3125C22.5 16.7437 22.3266 17.1328 21.9797 17.4797C21.6328 17.8266 21.2437 18 20.8125 18H1.6875ZM1.6875 1.6875V16.3125H20.8125V3.375H10.5469L8.85938 1.6875H1.6875Z" fill="#4F4F4F"/>
</svg>
