<svg width="25" height="18" viewBox="0 0 25 18" fill="none" xmlns="http://www.w3.org/2000/svg">
<path d="M5.91549 18C4.30047 18 2.9108 17.4178 1.74648 16.2535C0.58216 15.0892 0 13.6995 0 12.0845C0 10.6197 0.464789 9.32864 1.39437 8.21127C2.32394 7.0939 3.52113 6.42253 4.98592 6.19718C5.3615 4.37559 6.24413 2.88732 7.6338 1.73239C9.02347 0.577465 10.6291 0 12.4507 0C14.5728 0 16.3521 0.765258 17.7887 2.29577C19.2254 3.82629 19.9437 5.66197 19.9437 7.80282V8.47887C21.2958 8.44131 22.4413 8.87793 23.3803 9.78873C24.3192 10.6995 24.7887 11.8498 24.7887 13.2394C24.7887 14.5352 24.3192 15.6526 23.3803 16.5915C22.4413 17.5305 21.3239 18 20.0282 18H13.2394C12.7887 18 12.3944 17.831 12.0563 17.493C11.7183 17.1549 11.5493 16.7606 11.5493 16.3099V9.04225L9.21127 11.3803L8 10.169L12.3944 5.77465L16.7887 10.169L15.5775 11.3803L13.2394 9.04225V16.3099H20.0282C20.8732 16.3099 21.5962 16.0094 22.1972 15.4085C22.7981 14.8075 23.0986 14.0845 23.0986 13.2394C23.0986 12.3944 22.7981 11.6714 22.1972 11.0704C21.5962 10.4695 20.8732 10.169 20.0282 10.169H18.2535V7.80282C18.2535 6.13146 17.6854 4.69484 16.5493 3.49296C15.4131 2.29108 14.0094 1.69014 12.338 1.69014C10.6667 1.69014 9.25822 2.29108 8.11268 3.49296C6.96714 4.69484 6.39437 6.13146 6.39437 7.80282H5.85915C4.69484 7.80282 3.70892 8.21127 2.90141 9.02817C2.0939 9.84507 1.69014 10.8545 1.69014 12.0563C1.69014 13.2207 2.10262 14.2207 2.92758 15.0563C3.75252 15.892 4.74849 16.3099 5.91549 16.3099H9.85915V18H5.91549Z" fill="#4F4F4F"/>
</svg>
