<svg width="23" height="18" viewBox="0 0 23 18" fill="none" xmlns="http://www.w3.org/2000/svg">
<path d="M8.775 13.6969L16.0875 8.94375L8.775 4.19062V13.6969ZM1.6875 18C1.2375 18 0.84375 17.8312 0.50625 17.4937C0.16875 17.1562 0 16.7625 0 16.3125V1.6875C0 1.2375 0.16875 0.84375 0.50625 0.50625C0.84375 0.16875 1.2375 0 1.6875 0H20.8125C21.2625 0 21.6562 0.16875 21.9937 0.50625C22.3312 0.84375 22.5 1.2375 22.5 1.6875V16.3125C22.5 16.7625 22.3312 17.1562 21.9937 17.4937C21.6562 17.8312 21.2625 18 20.8125 18H1.6875ZM1.6875 16.3125H20.8125V1.6875H1.6875V16.3125Z" fill="#4F4F4F"/>
</svg>
